<svg xmlns="http://www.w3.org/2000/svg" viewBox="0 0 530.15 232.18"><defs><style>.cls-1{fill:#5a5b5e;}.cls-2{fill:#006da1;}</style></defs><title>logoUCC</title><g id="Capa_2" data-name="Capa 2"><g id="Capa_1-2" data-name="Capa 1"><rect class="cls-1" x="24.87" y="46.29" width="99.07" height="12.43"/><path class="cls-2" d="M148.82,71.05H124V168.8c0,23.4-13,48.4-49.68,48.4-36.47,0-49.47-25-49.47-48.4V71.05H0v3.29l9.28,2.89,0,91.57c0,39.22,25.14,63.38,65,63.38S139.52,208,139.52,168.8l-.17-91.57,9.47-3Z"/><path class="cls-2" d="M123.94,32.62A7.67,7.67,0,1,1,116.25,25,7.67,7.67,0,0,1,123.94,32.62Z"/><path class="cls-2" d="M40.22,32.62A7.67,7.67,0,1,1,32.53,25,7.67,7.67,0,0,1,40.22,32.62Z"/><path class="cls-2" d="M95.82,32.62A7.67,7.67,0,1,1,88.13,25,7.68,7.68,0,0,1,95.82,32.62Z"/><path class="cls-2" d="M68,32.62A7.67,7.67,0,1,1,60.35,25,7.67,7.67,0,0,1,68,32.62Z"/><polygon class="cls-2" points="86.59 9.09 77.73 9.09 77.73 0 71.42 0 71.42 9.09 62.23 9.09 62.23 15.4 71.42 15.4 71.42 24.8 77.73 24.8 77.73 15.4 86.59 15.4 86.59 9.09"/><polygon class="cls-1" points="58.35 159.13 52.72 165.88 51.92 165.88 46.32 159.13 46.32 170.55 41.71 170.55 41.71 151.89 45.7 151.89 52.34 159.68 58.98 151.89 62.96 151.89 62.96 170.55 58.35 170.55 58.35 159.13"/><path class="cls-1" d="M49.64,181.79v5.7h3.92a2.85,2.85,0,1,0,0-5.7Zm-4.62-4H54.3c3.71,0,6.89,2.17,6.89,6.92a6.6,6.6,0,0,1-6.89,6.8H49.64v4.94H45Z"/><polygon class="cls-1" points="94.69 189.26 87.58 177.79 92.73 177.79 97 185.01 101.29 177.79 106.41 177.79 99.31 189.24 99.31 196.45 94.69 196.45 94.69 189.26"/><path class="cls-1" d="M97,166.48a5.26,5.26,0,1,0-5.08-5.23A5,5,0,0,0,97,166.48Zm0-14.87a9.61,9.61,0,1,1-9.58,9.64A9.39,9.39,0,0,1,97,151.61Z"/><rect class="cls-1" x="94.57" y="159.61" width="4.85" height="3.21"/><path class="cls-1" d="M114.65,141.31a28,28,0,0,1-6.27-2.29c-7.61-3.42-19.08-8.36-34,1.74-15-10.1-26.21-5.16-33.83-1.74a26.37,26.37,0,0,1-6.36,2.31v6.88c3-.18,6-1.52,9.17-2.94,7.37-3.3,16-8,28,.32v61.8c1.08.07,1.91.09,3,.09,1,0,1.8,0,3.16-.12l0-61.77c12-8.31,20.74-3.62,28.1-.32,3.14,1.4,6.1,2.73,9.07,2.94Z"/><path class="cls-2" d="M66.09,136.46,44.26,82.38c-1,.34-4.39,1.59-5.26,2L59.39,134.9A28.16,28.16,0,0,1,66.09,136.46Z"/><path class="cls-2" d="M34.21,119.53v7.79l9.68,10.26a41.46,41.46,0,0,1,5.58-1.89Z"/><path class="cls-2" d="M34.21,100.73v4.38L53.32,135c.87-.1,1.76-.17,2.67-.19Z"/><path class="cls-2" d="M75.53,77.36c-.4,0-1.9,0-2.3,0l-1.63,0h0V139c.84.49,1.93,1.15,2.8,1.74.86-.59,2-1.25,2.83-1.74V77.39Z"/><path class="cls-2" d="M59,78.63c-.81.13-1.51.26-2.31.42l11.15,58.1c.87.37,1.75.79,2.65,1.27Z"/><path class="cls-2" d="M82.73,136.46l21.83-54.08c1,.34,4.38,1.59,5.26,2L89.43,134.9A28,28,0,0,0,82.73,136.46Z"/><path class="cls-2" d="M114.61,119.53v7.79l-9.69,10.26a40.52,40.52,0,0,0-5.58-1.89Z"/><path class="cls-2" d="M114.61,100.73v4.38L95.49,135c-.86-.1-1.75-.17-2.67-.19Z"/><path class="cls-2" d="M89.81,78.63c.81.13,1.5.26,2.31.42L81,137.15c-.86.37-1.75.79-2.64,1.27Z"/><path class="cls-1" d="M172.72,84.94c0,3.42,1.74,5.51,5.12,5.51s5.23-2.16,5.23-5.51V71.81h5.85V85.33c0,5.68-3.9,10.56-11.08,10.56s-11-4.43-11-10.56V71.81h5.86Z"/><polygon class="cls-1" points="203.08 81.11 203.08 95.5 197.22 95.5 197.22 71.81 202.31 71.81 214.22 86.2 214.22 71.81 220.08 71.81 220.08 95.5 215.03 95.5 203.08 81.11"/><rect class="cls-1" x="228.81" y="71.81" width="5.85" height="23.69"/><polygon class="cls-1" points="240.76 71.81 247.17 71.81 253.4 89.93 259.81 71.81 266.26 71.81 257.13 95.5 249.71 95.5 240.76 71.81"/><polygon class="cls-1" points="272.1 95.5 272.1 71.81 289.7 71.81 289.7 76.9 277.68 76.9 277.68 80.97 287.16 80.97 287.16 85.89 277.68 85.89 277.68 90.42 289.7 90.42 289.7 95.5 272.1 95.5"/><path class="cls-1" d="M304.53,76.9v5.85h5.3A2.85,2.85,0,0,0,313,79.82a2.81,2.81,0,0,0-3.13-2.92Zm15.3,18.78a4.44,4.44,0,0,1-1.54.17c-5.43,0-10.1-6-11.8-8.4h-2v8h-5.85V71.81h11.25c5.23,0,9.1,2.27,9.1,7.8,0,3.73-2.62,6.41-6.21,7.15,2,2,4.22,4,6.41,4h.6Z"/><path class="cls-1" d="M332.09,85.29c-3.7-1-5.47-3.13-5.47-6.41,0-4.11,3.24-7.38,9.68-7.38,6.07,0,8.05,2.82,9.06,4.73l-3.91,2.9a5.94,5.94,0,0,0-5.39-2.62c-2.41,0-3.49.8-3.49,1.95s.7,1.47,2.16,1.88l4.19,1.26c4.35,1.29,6.34,3.27,6.34,6.55,0,4.56-3.84,7.7-9.76,7.7a19.23,19.23,0,0,1-8.5-2.06l1.36-5.29a13.75,13.75,0,0,0,7.25,2.33c2.37,0,3.65-1,3.65-2.26,0-1-1-1.61-2.75-2.1Z"/><rect class="cls-1" x="352.85" y="71.81" width="5.85" height="23.69"/><path class="cls-1" d="M373.41,76.9V90.42h4.14c5.23,0,6.52-1.71,6.52-6.73s-1.29-6.79-6.52-6.79Zm-5.85-5.09h10.38c8.4,0,12.15,3.14,12.15,11.88S386.34,95.5,377.94,95.5H367.56Z"/><path class="cls-1" d="M403.53,86.86h7l-3.41-9.27Zm.14-15h6.86l9,23.69H413.6L412,91.15h-9.93l-1.64,4.35h-5.92Z"/><path class="cls-1" d="M431.2,76.9V90.42h4.14c5.23,0,6.52-1.71,6.52-6.73s-1.29-6.79-6.52-6.79Zm-5.86-5.09h10.39c8.39,0,12.16,3.14,12.16,11.88S444.12,95.5,435.73,95.5H425.34Z"/><path class="cls-2" d="M196.27,128c-1.69-3.39-3.88-5.87-8.79-5.87-6.55,0-10.85,4.36-10.85,11.88s4.42,11.76,11,11.76a18.33,18.33,0,0,0,12-4.85l4.72,7.58a26.11,26.11,0,0,1-17.09,6.67c-12.19,0-21.1-7.88-21.1-21.16s9.1-21.29,21.28-21.29c9.46,0,14.92,5,16.85,10.43Z"/><path class="cls-2" d="M223.44,122.17v10.19h9.21c3.34,0,5.46-2.06,5.46-5.09s-2.12-5.1-5.46-5.1Zm26.62,32.69a7.54,7.54,0,0,1-2.67.3c-9.46,0-17.58-10.49-20.55-14.61h-3.4v14H213.25V113.32h19.59c9.09,0,15.82,3.94,15.82,13.58,0,6.49-4.54,11.16-10.79,12.43,3.46,3.52,7.33,7,11.16,7h1Z"/><rect class="cls-2" x="260.94" y="113.32" width="10.18" height="41.23"/><path class="cls-2" d="M289.7,136.79c-6.42-1.76-9.52-5.46-9.52-11.16,0-7.15,5.64-12.85,16.86-12.85,10.55,0,14,4.91,15.76,8.24l-6.79,5c-1-1.34-3.27-4.55-9.4-4.55-4.18,0-6.06,1.39-6.06,3.39,0,1.82,1.21,2.55,3.76,3.28l7.28,2.18c7.57,2.24,11,5.7,11,11.4,0,7.94-6.67,13.4-17,13.4a33.43,33.43,0,0,1-14.79-3.58l2.37-9.21a24,24,0,0,0,12.61,4.06c4.12,0,6.36-1.7,6.36-3.94,0-1.82-1.82-2.79-4.79-3.64Z"/><polygon class="cls-2" points="341 122.23 341 154.54 330.81 154.54 330.81 122.23 318.15 122.23 318.15 113.31 353.31 113.31 353.31 122.23 341 122.23"/><path class="cls-2" d="M383.07,109.68h-8.43l4.91-9.57h10Zm-3.82,35.9c6.67,0,11.22-5,11.22-11.58s-4.55-11.64-11.22-11.64c-6.49,0-11.22,5-11.22,11.64S372.76,145.58,379.25,145.58Zm-.06-32.87c12.19,0,21.28,9.1,21.28,21.29s-9.09,21.16-21.28,21.16A20.69,20.69,0,0,1,358,134C358,121.81,367.12,112.71,379.19,112.71Z"/><path class="cls-2" d="M429.16,146.43c3.82,0,5.69-1.46,5.69-4.25,0-3-2.18-4.43-6.18-4.43h-8.85v8.68Zm-2.91-16.92c3.63,0,5.69-1.21,5.69-4s-1.93-4.06-5.57-4.06h-6.55v8.06Zm-16.61-16.19h18.24c9.16,0,14.56,3.52,14.56,11.09a9.06,9.06,0,0,1-5.95,8.68c5.77,1.21,9.22,4.49,9.22,10.3,0,6.92-5.34,11.16-15,11.16h-21Z"/><path class="cls-2" d="M465,139.52h12.19l-5.95-16.13Zm.24-26.2h11.95l15.64,41.23H482.47L479.69,147H462.4l-2.85,7.58h-10.3Z"/><polygon class="cls-2" points="499.47 154.55 499.47 113.32 509.65 113.32 509.65 145.7 530.15 145.7 530.15 154.55 499.47 154.55"/><path class="cls-2" d="M196.24,187.05c-1.7-3.39-3.88-5.87-8.78-5.87-6.55,0-10.84,4.36-10.84,11.87s4.42,11.75,11,11.75a18.29,18.29,0,0,0,12-4.84l4.72,7.56a26,26,0,0,1-17.08,6.66c-12.17,0-21.07-7.87-21.07-21.13s9.08-21.26,21.26-21.26c9.44,0,14.89,5,16.83,10.42Z"/><path class="cls-2" d="M232,204.62c6.66,0,11.2-5,11.2-11.57s-4.54-11.63-11.2-11.63c-6.48,0-11.2,5-11.2,11.63S225.51,204.62,232,204.62Zm-.06-32.83c12.17,0,21.25,9.09,21.25,21.26s-9.08,21.13-21.25,21.13a20.67,20.67,0,0,1-21.14-21.13C210.79,180.88,219.88,171.79,231.93,171.79Z"/><polygon class="cls-2" points="262.33 213.58 262.33 172.4 272.5 172.4 272.5 204.74 292.97 204.74 292.97 213.58 262.33 213.58"/><polygon class="cls-2" points="358.67 188.57 358.67 213.58 348.5 213.58 348.5 172.4 357.35 172.4 378.06 197.41 378.06 172.4 388.23 172.4 388.23 213.58 379.45 213.58 358.67 188.57"/><path class="cls-2" d="M322,168.76h-8.41l4.9-9.57h10Zm-3.81,35.85c6.66,0,11.2-5,11.2-11.57s-4.54-11.62-11.2-11.62c-6.48,0-11.21,5-11.21,11.62S311.66,204.61,318.14,204.61Zm-.06-32.83c12.17,0,21.25,9.09,21.25,21.26s-9.08,21.14-21.25,21.14A20.67,20.67,0,0,1,296.94,193C296.94,180.87,306,171.78,318.08,171.78Z"/></g></g></svg>